---
title: OVERVIEW - SAP S/4HANA Core Entities
config:
  layout: elk
---
erDiagram
    direction lr

    %% ORGANIZE %%
    OperatingConcern ||--|| ControllingArea : "controllingArea"
    ControllingArea ||--|{ CompanyCode : "companyCode"
    CompanyCode ||--|{ Plant : "plant"
    Plant ||--|{ StorageLocation : "StorageLocation"
    Plant ||--|{ ShippingPoint : "shippingPoint"

    CompanyCode ||--|{ SalesOrg: "salesOrg"
    SalesOrg ||--|{ DistributionChannel: "distributionChannel"
    DistributionChannel ||--|{ Division: "division"
    SalesOrg ||--|{ BridgeSalesArea: "saleOrg"
    DistributionChannel ||--|{ BridgeSalesArea: "channel"
    Division ||--|{ BridgeSalesArea: "division"


    %% MATERIAL %%
    Material }|--|| MaterialType: "type"
    Material }|--|| MaterialGroup: "group"
    %% Material }|--|| Industry: "industry"
    %% Material }|--|| Source: "source"
    Material }|--|| UOM: "baseUnit"
    Material }|--|| UOM: "weightUnit"
    Material }|--|| UOM: "columnUnit"

    Plant ||--|{ MaterialPlant: "plant"
    MaterialPlant ||--|{ Material: "material"

    StorageLocation ||--|{ BridgeMaterialStorageLocation: "storageLocation"
    Plant ||--|{ BridgeMaterialStorageLocation: "plant"
    BridgeMaterialStorageLocation }|--|| Material: "material"

    BridgeSalesArea ||--|{ BridgeMaterialSalesArea: "salesArea"
    BridgeMaterialSalesArea }|--|| Material: "material"

    _Class ||--|{ Characteristic: "characteristic"
    Material ||--|{ BridgeMaterialBatch: "batch"
    Plant ||--|{ BrideMaterialBatch: "plant"
    BridgeMaterialBatch ||--|| _Class: "class"
    BridgeMaterialBatch ||--|{ BridgeBatchCharacteristicValue: "value"
    Characteristic ||--|{ BridgeBatchCharacteristicValue: "value"
    Characteristic ||--|{ CharacteristicGroup: "group"

    CompanyCode ||--|{ BridgeCompanyCodePurchasingOrg: "companyCode"
    BridgeCompanyCodePurchasingOrg ||--|{ PurchasingOrg: "purchasingOrg"

    Plant ||--|{ BridgePurchasingOrgPlant: "plant"
    PurchasingOrg ||--|{ BridgePurchasingOrgPlant: "org"

    %% PURCHASING INFO RECORD %%
    PurchasingOrg ||--|{ PurchasingInfoRecord: "org"
    Material ||--|{ PurchasingInfoRecord: "material"
    Vendor ||--|{ PurchasingInfoRecord: "vendor"
    Plant o|--|{ PurchasingInfoRecord: "plant"

    Vendor ||--|{ VendorPurchasingOrg: "vendor"
    VendorPurchasingOrg ||--|{ PurchasingOrg: "org"

    %% BP %%
    BusinessPartner ||--|| Customer: "customer"
    BusinessPartner ||--|| Vendor: "vendor"
    CompanyCode ||--|{ BridgeCompanyCodeCustomer: "companyCode"
    BridgeCompanyCodeCustomer ||--|{ Customer: "customer"
    CompanyCode ||--|{ BridgeCompanyCodeVendor: "companyCode"
    BridgeCompanyCodeVendor ||--|{ Vendor: "vendor"
    Customer }|--|| BridgeSalesArea: "salesArea"

    Customer ||--|{ BridgeCustomerAccountBank: "customer"
    BridgeCustomerAccountBank ||--|| AccountBank: "bank"
    AccountBank ||--|| BankKey: "key"

    %% PROFIT CENTER & COST CENTER 
    CompanyCode ||--|{ ProfitCenter: "profitCenter"
    CompanyCode ||--|{ CostCenter: "costerCenter"
    Segment ||--|{ ProfitCenter: "profitCenter"
    ProfitCenter ||--|{ CostCenter: "costCenter"
    CostCenter ||--|{ Epmloyee: "employee"


    %% ACTIVITY TYPE
    CostCenter ||--|{ WorkCenter: "workCenter"
    CostCenter ||--|{ ActivityType: "costCenter"
    WorkCenter ||--|{ ActivityType: "workCenter"
    ActivityType }|--|| UOM: "unit"


    %% ACCOUNTING
    GlAccount }|--|| COA: "coa"
    GlAccount }|--|| GlAccountGroup: "group"
    CompanyCode ||--|{ BridgeCompanyCodeGlAcocunt: "companyCode"
    BridgeCompanyCodeGlAcocunt ||--|{ GlAccount: "glAccount"
    CompanyCode ||--|{ InternalOrder: ""
    ControllingArea ||--|{ InternalOrder: ""
    ProfitCenter o|--|{ InternalOrder: ""


    %% WorkCenter }|--|| Routing: "workCenter"
    %% ProductionVersion ||--|| Routing: "routing"
    %% ProductionVersion ||--|| BOM: "bom"
    %% BOMItems }|--|| BOM: "items"
    %% Material ||--|{ BOMItems: "items"