---
title: Humance Resource
config:
  layout: elk
---
erDiagram
Direction LR
    employee {
        employee_id BigInteger PK
        gender_id BigInteger FK
        marital_status_id BigInteger FK
        labor_status_id BigInteger FK
        nationality_id BigInteger FK
        manager_id BigInteger FK
        graduation_school_id BigInteger FK
        blood_group_id BigInteger FK
        current_address_ward_id BigInteger FK
        permanent_address_ward_id BigInteger FK
        hometown_id BigInteger FK
        place_of_birth_id BigInteger FK
        bank_id BigInteger FK
        medical_registration BigInteger FK
        language_1_id BigInteger FK
        language_2_id BigInteger FK
        orporation_id Varchar 
    }
    employee_decision {
        employee_id BigInteger PK,FK
        department_id Integer FK
        employee_type Integer FK
        job_position Integer FK
        job_title Integer FK
        rank_id Integer FK
        cost_category_level_1 Integer FK
        cost_category_level_2 Integer FK
        decision_no Varchar
    }
    employee_education {
        employee_id BigInteger PK,FK
        major_field_id BigInteger FK
        specialization_id BigInteger FK
        education_level_id BigInteger FK
        school_id BigInteger FK
        language_1_id BigInteger FK
        language_2_id BigInteger FK
    }
    employee_workshift {
        employee_id BigInteger FK
        workshift_id BigInteger FK
        attendance_machine_id BigInteger FK
        workshift_group_id BigInteger FK
        attendance_type_id BigInteger FK
        overtime_type_id BigInteger FK
    }
    employee_attendance_machine {
        employee_id BigInteger FK
        attendance_machine_id BigInteger FK
    }
    employee_work_location {
        employee_id BigInteger FK
        work_location_id BigInteger FK
    }
    expense_type {
        expense_type_id BigInteger PK
    }
    employee_type {
        employee_type_id BigInteger PK
    }
    labor_status {
        labor_status_id BigInteger PK
    }
    department {
        department_id BigInteger PK
    }
    rank {
        rank_id BigInteger PK
    }
    job_title {
        job_title_id BigInteger PK
    }
    job_position {
        job_position_id BigInteger PK
    }
    language {
        language_id BigInteger PK
    }
    nationality {
        nationality_id BigInteger PK
    }
    marital_status {
        marital_status_id BigInteger PK
    }
    bank{
        bank_id BigInteger PK
    }
    ot_object{
        ot_object_id BigInteger PK
    }
    major{
        major_id BigInteger PK
    }
    specialization{
        specialization_id BigInteger PK
    }
    school{
        school_id BigInteger PK
    }
    education_level{
        education_level_id BigInteger PK
    }
       province_city{
        province_city_id BigInteger PK
    }
    ward {
        province_city_id BigInteger PK
    }
    old_province_city{
        old_province_city_id BigInteger PK
        province_city_id BigInteger FK
    }
    old_district{
        old_district_id BigInteger PK
        old_province_city_id BigInteger FK
        ward_id BigInteger FK
    }
    old_ward {
        old_ward_id BigInteger PK
        old_district_id BigInteger FK
        ward_id BigInteger FK
    }
    attendance_machine{
        attendance_machine_id BigInteger PK
    }
    workshift_group{
        workshift_group_id BigInteger PK
    }
    workshift{
        workshift_id BigInteger PK
    }
    attendance_object{
        attendance_object_id BigInteger PK
    }
    medical_facility{
        medical_facility_id BigInteger PK
    }
    blood_group{
        blood_group_id BigInteger PK
    }
    gender{
        gender_id BigInteger PK
    }
    work_location{
        work_location_id BigInteger PK
    }

        %% ==== ENTITY CHÍNH ====
    employee ||--|{ employee_decision : decision
    employee ||--|{ employee_education : education
    employee ||--o{ employee_attendance_machine : attendanceMachine
    employee ||--o{ employee_work_location : workLocationLink
    employee ||--o| blood_group : bloodGroup

    employee_work_location }|--|| work_location: workLocation

    employee ||--|| ward : currentAddressWard
    employee ||--|| ward : permanentAddressWard
    employee ||--|| province_city : hometown
    employee ||--|| province_city : placeOfBirth

    %% ==== LIÊN KẾT DANH MỤC ====
    employee }o--o| gender : gender
    employee }o--o| marital_status : maritalStatus
    employee }o--|| nationality : nationality
    employee }o--|| labor_status : laborStatus
    employee ||--o| language  : language1
    employee ||--o| language  : language2
    employee ||--|| school  : graduationSchool

    employee |o--|| bank : bank
    workshift }o--|| workshift_group : workshiftGroup

    employee_decision }o--o| expense_type: costCategoryLevel1
    employee_decision }o--o| expense_type: costCategoryLevel2

    employee_decision }o--|| department : department
    employee_decision }o--|| job_position : jobPosition
    employee_decision }o--|| rank : rank
    employee_decision }o--o| employee_type : employeeType
    employee_decision }o--|| job_title : jobTitle
    employee }o--o| employee: manager

    employee_education }o--o|  education_level: educationLevel
    employee_education }o--o| school : school
    employee_education }o--o| major : majorField
    employee_education }o--o| specialization : specialization

    employee }o--|| medical_facility : medicalRegistration

    employee_attendance_machine }|--|| attendance_machine : attendanceMachine
    employee ||--|{ employee_workshift: workshiftLink
    employee_workshift }|--|| workshift: workshift
    employee_workshift }|--|| workshift_group: workshiftGroup
    employee_workshift }|--|| attendance_object : attendanceType
    employee_workshift }|--|| ot_object : overtimeType

    province_city ||--|{ old_province_city: new_province_city
    ward ||--|{ old_district: new_ward
    ward ||--|{ old_ward: new_ward
    old_province_city ||--|{ old_district : old_province_city
    old_district ||--|{ old_ward : old_district
    province_city ||--|{ ward: new_province_city