---
title: sap_s4hana_master_entities (s4hana_compliant)
config:
  layout: elk
---
erDiagram
    direction lr

    operating_concern {
        operating_concern_id BigInteger PK
        country_id BigInteger FK
    }
    controlling_area {
        controlling_area_id BigInteger PK
        currency_id BigInteger FK
        fiscal_variant_id BigInteger FK        
    }
    company_code {
        company_code_id BigInteger PK
        controlling_area_id BigInteger FK
        country_id BigInteger FK
        currency_id BigInteger FK
        fiscal_variant_id BigInteger FK        
        posting_period_variant_id BigInteger FK        
    }
    fiscal_year_variant {
        fiscal_year_variant BigInteger PK
    }
    posting_period_variant {
        posting_period_variant BigInteger PK
    }
    plant {
        plant_id BigInteger PK
        company_code_id BigInteger FK
        country_id BigInteger FK
    }
    storage_location {
        storage_location_id BigInteger PK
        plant_id BigInteger FK
    }
    sales_org {
        sales_org_id BigInteger PK
        company_code_id BigInteger FK
    }
    distribution_channel {
        distribution_channel_id BigInteger PK
    }
    division {
        division_id BigInteger PK
    }
    sales_area {
        sales_org_id BigInteger FK
        distribution_channel_id BigInteger FK
        division_id BigInteger FK
    }
    purchasing_org {
        purchasing_org_id BigInteger PK
        company_code_id BigInteger FK
    }
    purchasing_group {
        purchasing_group_id BigInteger PK
        purchasing_org_id BigInteger FK
    }

    %% ORGANIZATIONAL STRUCTURE
    operating_concern ||--|| controlling_area : "controllingArea"
    controlling_area ||--|{ company_code : "companyCode"
    company_code ||--|{ plant : "plant"
    plant ||--|{ storage_location : "storageLocation"
    
    %% SALES ORGANIZATION
    company_code ||--|| sales_org: "salesOrg"
    sales_org ||--|{ sales_area: "salesArea"
    distribution_channel ||--|{ sales_area: "channel"
    division ||--|{ sales_area: "division"
    
    %% PURCHASING ORGANIZATION
    company_code ||--|| purchasing_org: "purchasingOrg"
    purchasing_org ||--|{ purchasing_group: "purchasingGroup"
    
    %% FI CONFIGURATION (Organization related)
    fiscal_year_variant ||--|{ controlling_area : "fiscalVariant"
    fiscal_year_variant ||--|{ company_code : "fiscalVariant"
    posting_period_variant ||--|{ company_code : "periodVariant"
```

## 2. MATERIAL

```mermaid
erDiagram
    direction lr
    
    %% MATERIAL MASTER
    Material }|--|| MaterialType : "materialType_XXX"
    Material }|--|| MaterialGroup : "materialGroup_XXX"
    Material }|--|| UOM: "baseUnit_XXX"
    Material }|--|| UOM: "weightUnit_XXX"
    Material }|--|| UOM: "volumeUnit_XXX"
    Material ||--|{ BRG_MaterialAlternativeUnit : "material_XXX"
    BRG_MaterialAlternativeUnit }|--|| UOM: "alternativeUnit_XXX"
    
    %% MATERIAL PLANT
    Plant ||--|{ MaterialPlantAssignment: "plant_XXX"
    Material ||--|{ MaterialPlantAssignment : "material_XXX"
    MRPController ||--|{ MaterialPlantMRPData  : "mrpController_XXX"
    
    MaterialPlantAssignment ||--o| MaterialPlantPurchasingData : "materialPlant_XXX"
    MaterialPlantAssignment ||--o| MaterialPlantMRPData: "materialPlant_XXX"
    MaterialPlantAssignment ||--o| MaterialPlantSlocData: "materialPlant_XXX"
    MaterialPlantAssignment ||--o| MaterialAccountingData: "materialPlant_XXX"

    MaterialPlantPurchasingData }|--|| UOM: "orderUnit_XXX"
    MaterialPlantPurchasingData }|--|| PurchasingGroup: "purchasingGroup_XXX"
    
    MaterialPlantSlocData }o--||  StorageLocation: "storageLocation_XXX"
    MaterialPlantSlocData }o--||  UOM: "issueUnit_XXX"
    ValuationClass ||--|{ MaterialAccountingData: "valuationClass_XXX"
    
    %% MATERIAL SALES
    SalesArea ||--|{ MaterialSalesData: "salesArea_XXX"
    Material ||--|{ MaterialSalesData : "material_XXX"
    MaterialSalesData }|--|| UOM: "salesUnit_XXX"
    
    %% MATERIAL CLASSIFICATION
    ClassificationClass ||--|{ BRG_ClassCharacteristic: "class_XXX"
    Characteristic ||--|{ BRG_ClassCharacteristic: "characteristic_XXX"
    Material ||--o{ BRG_MaterialBatch: "materialBatch_XXX"
    Material ||--o{ BRG_MaterialClassification: "materialBatch_XXX"
    BRG_MaterialClassification }|--|| ClassificationClass: "classification_XXX"
    BRG_MaterialBatch ||--|| ClassificationClass: "batchClass_XXX"
    BRG_MaterialClassification ||--|{ BRG_CharacteristicValue: "classificationValue_XXX"
    BRG_MaterialBatch ||--|{ BRG_CharacteristicValue: "value_XXX"
    Characteristic ||--|{ BRG_CharacteristicValue: "characteristic_XXX"
    
    %% PURCHASING INFO RECORD
    PurchasingOrg ||--|{ PurchasingInfoRecord: "purchasingOrg_XXX"
    PurchasingGroup ||--|{ PurchasingInfoRecord: "purchasingGroup_XXX"
    Material ||--|{ PurchasingInfoRecord: "material_XXX"
    Vendor ||--|{ PurchasingInfoRecord: "vendor_XXX"
    Plant |o--|{ PurchasingInfoRecord: "plant_XXX"
    PurchasingInfoRecord }|--|| UOM : "priceUnit_XXX"
    PurchasingInfoRecord }|--|| UOM : "orderUnit_XXX"
    
    %% SOURCE LIST & QUOTA
    Material ||--|{ SourceList : "material_XXX"
    Plant ||--|{ SourceList : "plant_XXX"
    Vendor ||--|{ SourceList : "vendor_XXX"
    SourceList ||--|{ QuotaArrangement : "sourceList_XXX"
    
    %% VALUATION
    MaterialType ||--|{ BRG_ValuationClassMaterialType: "_XXX"
    BRG_ValuationClassMaterialType }|--|| ValuationClass: "_XXX"
```

## 3. BUSINESS PARTNER

```mermaid
erDiagram
    direction lr
    
    %% BUSINESS PARTNER ENHANCED
    BusinessPartner ||--|| Customer: "customer_XXX"
    BusinessPartner ||--|| Vendor: "vendor_XXX"
    BusinessPartner ||--|| Employee: "employee"
    Region ||--|{ BusinessPartner: "_XXX"
    Country ||--|{ BusinessPartner: "_XXX"
    BusinessPartnerGroup ||--|{ BusinessPartner : "businessPartner_XXX"
    
    %% VENDOR ENHANCED
    Vendor ||--|{ BRG_VendorPurchasingData: "purchasingData_XXX"
    PurchasingOrg ||--|{ BRG_VendorPurchasingData: "vendor_XXX"
    PurchasingGroup ||--|{ BRG_VendorPurchasingData: "vendor_XXX"
    Currency ||--|{ BRG_VendorPurchasingData: "orderCurrency_XXX"
    Vendor ||--|{ BRG_VendorAccountingData: "accountingData_XXX"
    CompanyCode ||--|{ BRG_VendorAccountingData: "purchasingData_XXX"
    
    %% CUSTOMER ENHANCED
    CompanyCode ||--|{ BRG_CustomerAccountingData: "companyCode_XXX"
    BRG_CustomerAccountingData ||--|{ Customer: "customer_XXX"
    Customer ||--|{ BRG_CustomerSalesData: "customer_XXX"
    SalesOffice ||--|{ BRG_CustomerSalesData: "_XXX"
    SalesGroup ||--|{ BRG_CustomerSalesData: "_XXX"
    Currency ||--|{ BRG_CustomerSalesData: "_XXX"
    Plant ||--|{ BRG_CustomerSalesData: "_XXX"
    BRG_CustomerSalesData }|--|| SalesArea: "salesArea_XXX"
    
    %% BANK DETAILS
    BusinessPartner ||--|{ BusinessPartnerBankAccount: "bankAccount"
    Country ||--|{ BankKey: "_XXX"
    BankKey ||--|{ BusinessPartnerBankAccount: "BPBankAccount"
    Country ||--|{ BusinessPartnerBankAccount: "BPBankAccount"
    CompanyCode ||--|{ HouseBank: "houseBank_XXX"
    HouseBank }|--|| BankKey : "_XXX"
    HouseBank ||--|{ AccountBank: "_XXX"
    Currency ||--|{ AccountBank: "_XXX"
```

## 4. ACCOUNTING

```mermaid
erDiagram
    direction lr
    
    %% CONTROLLING AREA
    ControllingArea ||--|{ CostCenter: "_XXX"
    CompanyCode ||--|{ CostCenter: "companyCode_XXX"
    ProfitCenter ||--|{ CostCenter: "profitCenter_XXX"
    CostCenter ||--|{ BRG_CostCenterEmployee: "costCenter"
    BRG_CostCenterEmployee }|--|| Employee: "employee"
    
    %% ACTIVITY TYPE
    CostCenter ||--|{ BRG_CostCenterWorkCenter: "costCenter"
    BRG_CostCenterWorkCenter }|--|| WorkCenter: "workCenter"
    ActivityType }|--|| UOM : "activityUnit"
    
    %% GL ACCOUNT
    COA ||--|{ GlAccount : "chartOfAccounts"
    GlAccountGroup ||--|{ GlAccount : "glAccountGroup_XXX"
    GlAccount ||--|{ BRG_GlAccountAssignment: "_XXX"
    CompanyCode ||--|{ BRG_GlAccountAssignment: "companyCode_XXX"
    Currency ||--|{ BRG_GlAccountAssignment: "companyCode_XXX"
    GlAccount ||--|{ MaterialType: "_XXX"
    GlAccount ||--|{ BRG_VendorAccountingData: "purchasingData_XXX"
    GlAccount ||--|{ BRG_CustomerAccountingData: "_XXX"
    GlAccount |o--|{ ActivityType: "primaryCostElement"
    GlAccount |o--|{ ActivityType: "secondaryCostElement"
    
    %% INTERNAL ORDER
    ControllingArea ||--|{ InternalOrder: "controllingArea"
    CostCenter |o--|{ InternalOrder: "defaultCostCenter"
    Currency ||--|{ ControllingArea: "controllingArea_XXX"
    FiscalYearVariant ||--|{ ControllingArea: "controllingArea_XXX"
    
    %% CURRENCY & EXCHANGE RATE
    Currency ||--|{ CompanyCode : "localCurrency_XXX"
    Currency ||--|{ ExchangeRate : "fromCurrency_XXX"
    Currency ||--|{ ExchangeRate : "toCurrency_XXX"
    Country ||--|{ CompanyCode : "companyCode_XXX"
    ExchangeRate }|--|| ExchangeRateType : "exchangeRate_XXX"
    
    %% TAX CONFIGURATION
    MaterialSalesData ||--|{ TaxAssignment : "_XXX"
    MaterialPlantPurchasingData ||--|{ TaxAssignment: "_XXX"
    TaxClassification ||--|{ BRG_CustomerSalesData: "taxClassification_XXX"
    AccountAssignmentGroup ||--|{ MaterialSalesData: "materialAAG_XXX_XXX"
    AccountAssignmentGroup ||--|{ BRG_CustomerSalesData: "customerAAG_XXX"
    Country |o--|{ TaxAssignment: "_XXX"
    TaxCategory ||--|{ TaxAssignment: "_XXX"
    TaxClassification ||--|{ TaxAssignment: "_XXX"
    Country ||--|| TaxCategory: "_XXX"
    Country ||--|| TaxClassification: "_XXX"
    Country ||--|{ TaxCode: "country"
    GlAccount ||--|{ TaxCode: "postingAccount"
    
    %% PAYMENT
    PaymentTerms ||--|{ BRG_VendorAccountingData: "_XXX"
    PaymentMethods ||--|{ BRG_VendorAccountingData: "_XXX"
    PaymentTerms ||--|{ BRG_CustomerSalesData: "paymentTerms_XXX"
    PaymentMethods ||--|{ BRG_CustomerSalesData: "paymentMethods_XXX"
    
    %% PLANNING
    PlanningGroup ||--|{ BRG_VendorAccountingData: "_XXX"
    PlanningLevel ||--|{ PlanningGroup: "_XXX"
    
    %% PROJECT SYSTEM
    ProjectType ||--|{ ProjectDefinition : "projectType"
    ControllingArea ||--|{ ProjectDefinition: "controllingArea"
    CompanyCode ||--|{ ProjectDefinition: "companyCode"
    ProjectDefinition ||--|{ WBS: "projectDefinition"
    WBS ||--|| WBS: "parentWBS"
    CostCenter |o--|{ WBS: "defaultCostCenter"
    
    %% SKF
    SKF }|--|| UOM: "skfUnit"
```