---
title: OVERVIEW - SAP S/4HANA Core Entities
config:
  theme: neutral
  layout: elk
---
erDiagram
    direction lr

  %% --- Company Structure (FI/CO Foundation) ---
  CompanyCode {
      Text companyCode PK
      Text companyCodeName
      Text controllingAreaCode FK
  }
  
  ControllingArea {
      Text controllingAreaCode PK
      Text controllingAreaName
  }
  Plant {
      Text plantCode PK
      Text plantName
  }
  SalesOrganization {
      Text salesOrgCode PK
      Text salesOrgName
  }
  DistributionChannel {
      Text distChannelCode PK
      Text distChannelName
  }
  Division {
      Text divisionCode PK
      Text divisionName
  }
  SalesArea {
      Text salesAreaCode PK
      Text salesOrgCode FK
      Text distributionChanelCode FK
      Text divisionCode Fk
  }
  PurchasingOrganization {
      Text purchOrgCode PK
      Text purchOrgName
  }
  PurchasingGroup {
      Text purchGroupCode PK
      Text purchGroupName
  }

  Segment {
      Text purchGroupCode PK
      Text purchGroupName
  }

  CompanyCode }|--|| ControllingArea : assignedTo
  CompanyCode ||--o{ Plant : has
  CompanyCode ||--o{ SalesOrganization : has
  CompanyCode ||--o{ PurchasingOrganization : has

  Plant ||--o{ StorageLocation : hasLocations
  Plant ||--o{ WorkCenter : hasCenters

  SalesOrganization ||--o{ SalesOffice : containsOffices
  SalesOrganization ||--o{ DistributionChannel : uses
  SalesOrganization ||--o{ Division : sellsVia

  SalesOrganization ||--o{ SalesArea : has
  DistributionChannel ||--o{ SalesArea : has
  Division ||--o{ SalesArea : has

  PurchasingOrganization ||--o{ PurchasingGroup : containsGroups
  PurchasingOrganization ||--o{ Plant : responsibleFor

  %% --- Master Data - Business Partners ---
  BusinessPartner {
      Text bpCode PK
      Text bpCategory
      Text bpName
  }
  Customer {
      Text customerCode PK
      Text customerName
  }
  Supplier {
      Text supplierCode PK
      Text supplierName
  }

  BusinessPartner ||--|| Customer : isRoleOf
  BusinessPartner ||--|| Supplier : isRoleOf

  Customer }o--|| SalesOrganization : belongsTo
  Customer }o--|| DistributionChannel : via
  Customer }o--|| Division : in
  Customer }o--|| PaymentTerm : uses
  Customer }o--|| PaymentMethod : uses
  Customer }o--|| TaxCode : subjectTo
  Customer }o--|| PlanningGroup : groupedBy
  Customer }o--|| PlanningLevel : categorizedBy

  Supplier }o--|| PurchasingOrganization : servedBy
  Supplier }o--|| PaymentTerm : uses
  Supplier }o--|| PaymentMethod : uses
  Supplier }o--|| TaxCode : subjectTo

  PurchasingInfoRecord {
      Text materialCode FK
      Text supplierCode FK
      Text purchasingOrgCode FK
      Text infoRecordKey PK
  }
  PurchasingInfoRecord }o--|| Material : for
  PurchasingInfoRecord }o--|| Supplier : has
  PurchasingInfoRecord }o--|| PurchasingOrganization : managedBy

  %% --- Master Data - Material ---
  MaterialType {
    Text materialTypeCode PK
    Text materialTypeName 
  }
  MaterialGroup {
    Text materialGroupCode PK
    Text materialGroupName 
  }
  Material {
      Text materialCode PK
      Text materialTypeCode FK
      Text materialGroupCode FK
      Text storageLocationCode FK
      Text purchasingOrgCode FK
      Text taxCode FK
  }
  MaterialSalesData {
      Text materialCode FK
      Text salesArea FK
  }
  Material }o--|| MaterialType : belongsTo
  Material }o--|| MaterialGroup : belongsTo
  Material }o--|| StorageLocation : storedIn
  Material }o--|| PurchasingOrganization : procuredBy
  Material }o--|| TaxCode : taxedBy
  Material ||--o{ ProductionVersion : hasVersions
  Material }o--|| Routing : usesForProduction
  Material ||--o{ Characteristic : hasAttributes


  Material ||--|{ MaterialProductionOrder: hasProdOrder
  MaterialProductionOrder }|--|| ProductionOrder: hasComponents

  Material ||--|{ MaterialSalesData: soldIn
  MaterialSalesData }|--|| SalesArea : served

  Material ||--o{ BOM : hasComponents

  ProductionVersion ||--|| Routing : uses
  ProductionVersion ||--|| BOM : uses

  Routing ||--o{ WorkCenter : utilizes

  Operation {
    Text operationCode PK
    Text operationDescription
  }

  Routing ||--|{ Operation: has

  ProductionOrder {
    Text productionOrderCode PK
    Text productionOrderDescription
  }

  SettlementRule {
    Text settlementRuleId PK
    Text senderObjectType
    Text senderObjectKey FK
    Text receiverObjectType
    Text receiverObjectKey FK
    Text settlementType
    Number percentage
  }

  ProductionOrder }|--|| ProductionVersion: uses
  ProductionOrder ||--|{ SettlementRule: has
  WbsElement ||--|{  SettlementRule: receivesForm

  %% --- Financial & Controlling Master Data ---
  ChartOfAccounts {
      Text coaCode PK
      Text coaName
  }
  GlAccount {
      Text glAccountCode PK
      Text glAccountDescription
  }
  CostElement {
      Text costElementCode PK
      Text costElementDescription
  }
  CostCenter {
      Text costCenterCode PK
      Text costCenterName
  }
  ProfitCenter {
      Text profitCenterCode PK
      Text profitCenterName
  }
  ProfitCenter }|--|| Segment : belongsTo
  CostCenter }|--|| Segment : belongsTo
  InternalOrder {
      Text internalOrderCode PK
      Text orderDescription
  }
  ProjectDefinition {
      Text projectDefinitionId PK
      Text projectName
  }
  WbsElement {
      Text wbsElementId PK
      Text wbsElementDescription
  }
  OperatingConcern {
      Text operatingConcernCode PK
      Text operatingConcernName
  }

  ChartOfAccounts ||--o{ GlAccount : defines
  GlAccount ||--|| CompanyCode : usedIn
  GlAccount ||--o{ CostElement : canBe

  CostCenter }|--|| ControllingArea : belongsTo
  CostCenter }|--|| CompanyCode : assignedTo
  CostCenter }|--|| Plant : assignedTo
  CostCenter }|--|| ProfitCenter : belongsTo
  CostCenter ||--o{ Skf : tracks
  CostCenter ||--o{ GlAccount : postsTo
  CostCenter ||--|{ WorkCenter : mappedTo
  CostCenter ||--|{ ActivityType: manages
  WorkCenter ||--|{ ActivityType: Contains

  ProfitCenter }|--|| ControllingArea : belongsTo
  ProfitCenter }|--|| CompanyCode : assignedTo
  ProfitCenter }|--|| Plant : assignedTo

  InternalOrder ||--|| CostCenter : settlesTo
  InternalOrder ||--|| WbsElement : tracksExpensesFor

  ProjectDefinition ||--o{ WbsElement : comprises
  Material }o--|| WbsElement : canBeAssignedTo

  ControllingArea }|--|| OperatingConcern : partOf

  %% --- Bank & Payment Details ---
  HouseBank {
      Text houseBankId PK
      Text bankName
  }
  BankAccount {
      Text bankAccountId PK
      Text accountDescription
  }
  BankKey {
      Text bankKey PK
      Text bankDetails
  }
  PaymentTerm {
      Text paymentTermCode PK
      Text termDescription
  }
  PaymentMethod {
      Text paymentMethodCode PK
      Text methodDescription
  }

  HouseBank ||--o{ BankAccount : owns
  BankAccount ||--|| BankKey : identifiedBy
  CompanyCode ||--o{ HouseBank : has

  %% --- Other Common Master Data ---
  TaxCode {
      Text taxCode PK
      Text taxDescription
  }
  DocumentType {
      Text docTypeCode PK
      Text documentTypeDescription
  }

  GlAccount ||--|| DocumentType : canBePostedWith
  DocumentType ||--o{ ChartOfAccounts : canPostTo

  Characteristic {
      Text charName PK
      Text description
  }
  ActivityType {
      Text activityTypeCode PK
      Text activityDescription
  }
  Skf {
      Text skfCode PK
      Text skfDescription
  }
  PlanningGroup {
      Text groupCode PK
      Text groupDescription
  }
  PlanningLevel {
      Text levelCode PK
      Text levelDescription
  }
  StorageLocation {
      Text storageLocationCode PK
      Text storageLocationName
  }
  WorkCenter {
      Text workCenterCode PK
      Text workCenterName
  }
